<svg width="16" height="20" fill="none" xmlns="http://www.w3.org/2000/svg"><path fill-rule="evenodd" clip-rule="evenodd" d="M8 2a6.04 6.04 0 0 0-4.247 1.739A5.885 5.885 0 0 0 2 7.923c0 2.752 1.558 5.29 3.251 7.215A21.65 21.65 0 0 0 8 17.748a21.65 21.65 0 0 0 2.749-2.61C12.442 13.212 14 10.675 14 7.923c0-1.567-.63-3.073-1.753-4.184A6.04 6.04 0 0 0 8 2Zm0 17-.57.822-.002-.002-.006-.004-.02-.013a7.839 7.839 0 0 1-.306-.226 23.655 23.655 0 0 1-3.347-3.119C1.942 14.403 0 11.402 0 7.923c0-2.105.846-4.121 2.347-5.606A8.04 8.04 0 0 1 8 0a8.04 8.04 0 0 1 5.653 2.317A7.885 7.885 0 0 1 16 7.923c0 3.48-1.942 6.48-3.749 8.535a23.65 23.65 0 0 1-3.347 3.12 13.278 13.278 0 0 1-.307.225l-.019.013-.006.004-.002.001L8 19Zm0 0 .57.822a1 1 0 0 1-1.14 0L8 19ZM8 6a1 1 0 1 0 0 2 1 1 0 0 0 0-2ZM5 7a3 3 0 1 1 6 0 3 3 0 0 1-6 0Z" fill="#C6AF66"/></svg>