<?xml version="1.0" encoding="utf-8"?><svg xmlns="http://www.w3.org/2000/svg" xmlns:xlink="http://www.w3.org/1999/xlink"><symbol viewBox="0 0 10 16" id="icon-facebook" xmlns="http://www.w3.org/2000/svg"><path d="M5.95 16V8.712h2.71l.407-2.853H5.95V4.042c0-.824.252-1.385 1.556-1.385h1.652V.112A24.483 24.483 0 0 0 6.737 0C4.34 0 2.7 1.325 2.7 3.76v2.1H0v2.852h2.7V16h3.25Z"/></symbol><symbol viewBox="0 0 18 15" id="icon-telegram" xmlns="http://www.w3.org/2000/svg"><path d="M4.426 8.655.36 7.33s-.485-.197-.329-.644c.032-.092.097-.17.292-.305.9-.628 16.671-6.297 16.671-6.297s.445-.15.708-.05a.384.384 0 0 1 .262.285c.028.118.04.239.035.36-.001.104-.014.2-.024.352-.096 1.55-2.97 13.116-2.97 13.116s-.172.677-.788.7a1.13 1.13 0 0 1-.823-.318c-1.209-1.04-5.388-3.848-6.311-4.466a.177.177 0 0 1-.076-.125c-.013-.065.058-.146.058-.146s7.277-6.468 7.47-7.147c.015-.053-.041-.079-.117-.056-.484.178-8.862 5.47-9.787 6.053a.446.446 0 0 1-.205.013Z"/></symbol><symbol viewBox="0 0 18 11" id="icon-vk" xmlns="http://www.w3.org/2000/svg"><path d="M3.948 1.062c.502 1.234 1.14 2.398 1.978 3.443.111.139.252.262.4.363.215.147.419.096.506-.15.093-.258.178-.78.183-1.05a22.57 22.57 0 0 0-.04-1.877C6.95 1.34 6.79.941 6.12.822 5.913.785 5.894.616 6.027.447c.276-.351.661-.407 1.078-.43.677-.036 1.355-.006 2.033 0 .275.003.553.025.825.084.354.077.544.324.602.668.03.178.046.36.042.54-.018.772-.055 1.543-.064 2.314-.004.303.018.613.083.908.091.41.373.514.66.217.366-.377.688-.801.99-1.232.549-.784.959-1.644 1.312-2.531.183-.458.323-.557.817-.558.93-.002 1.861-.003 2.791 0 .165 0 .338.016.494.065.252.08.353.285.293.546-.138.61-.469 1.128-.824 1.626-.569.799-1.165 1.579-1.748 2.369-.074.1-.14.208-.2.317-.219.392-.204.611.114.937.506.52 1.048 1.005 1.538 1.538.356.388.685.81.967 1.252.357.56.137 1.088-.53 1.182-.42.06-2.468 0-2.574 0a2.01 2.01 0 0 1-1.422-.564c-.433-.414-.825-.869-1.24-1.3a3.457 3.457 0 0 0-.403-.365c-.34-.258-.673-.2-.832.196-.136.341-.253 1.236-.258 1.312-.029.4-.284.655-.734.68-1.3.07-2.559-.075-3.732-.7-.994-.53-1.788-1.278-2.475-2.151C2.537 5.98 1.675 4.455.887 2.887c-.04-.081-.838-1.77-.86-1.85C-.044.77.022.516.25.428c.142-.054 2.772 0 2.816.003.42.022.706.198.883.632Z"/></symbol><symbol viewBox="0 0 20 20" id="icon-whatsapp" xmlns="http://www.w3.org/2000/svg"><path d="M20 9.707c0 5.342-4.365 9.707-9.837 9.707a9.945 9.945 0 0 1-4.756-1.238L0 20l1.759-5.212C.847 13.29.326 11.596.326 9.772.39 4.365 4.756 0 10.163 0S20 4.365 20 9.707Zm-9.837-8.143c-4.56 0-8.209 3.648-8.209 8.143a8.35 8.35 0 0 0 1.564 4.82L2.476 17.59l3.192-.978a8.352 8.352 0 0 0 4.56 1.369c4.56 0 8.274-3.649 8.274-8.209-.066-4.56-3.779-8.208-8.34-8.208Zm4.951 10.423c-.065-.13-.195-.13-.456-.26-.26-.13-1.433-.717-1.629-.782-.195-.066-.39-.13-.52.13-.131.26-.652.782-.783.912-.13.13-.26.195-.52.065-.261-.13-1.043-.39-1.955-1.172-.717-.652-1.173-1.434-1.368-1.63-.13-.26 0-.39.13-.455l.39-.391c.131-.13.131-.26.261-.391.066-.13.066-.326 0-.39-.065-.131-.52-1.304-.716-1.76-.196-.456-.391-.39-.521-.39H6.97c-.13 0-.391.064-.652.325-.26.26-.847.847-.847 2.02 0 1.172.847 2.28.978 2.475.13.13 1.693 2.671 4.104 3.583 2.475.977 2.475.652 2.866.587.456-.066 1.433-.587 1.629-1.108.13-.782.13-1.303.065-1.368Z"/></symbol></svg>