<svg width="16" height="20" viewBox="0 0 16 20" fill="none" xmlns="http://www.w3.org/2000/svg">
<path fill-rule="evenodd" clip-rule="evenodd" d="M8 2C6.40516 2 4.87783 2.62669 3.75344 3.73872C2.62943 4.85039 2 6.35577 2 7.92308C2 10.6745 3.55792 13.2121 5.251 15.1378C6.08487 16.0862 6.92139 16.8518 7.54974 17.38C7.71633 17.52 7.86776 17.6429 8 17.7477C8.13224 17.6429 8.28367 17.52 8.45026 17.38C9.07861 16.8518 9.91513 16.0862 10.749 15.1378C12.4421 13.2121 14 10.6745 14 7.92308C14 6.35577 13.3706 4.85039 12.2466 3.73872C11.1222 2.62669 9.59484 2 8 2ZM8 19C7.43079 19.8222 7.43052 19.822 7.43023 19.8218L7.42757 19.82L7.42181 19.8159L7.40281 19.8026C7.38688 19.7913 7.36447 19.7754 7.33603 19.7548C7.27915 19.7138 7.19806 19.6543 7.09622 19.5773C6.89264 19.4235 6.60555 19.1991 6.26276 18.9109C5.57861 18.3357 4.66513 17.5004 3.749 16.4584C1.94208 14.4033 0 11.4024 0 7.92308C0 5.81816 0.84557 3.80171 2.34706 2.31672C3.84818 0.832097 5.88181 0 8 0C10.1182 0 12.1518 0.832097 13.6529 2.31672C15.1544 3.80171 16 5.81816 16 7.92308C16 11.4024 14.0579 14.4033 12.251 16.4584C11.3349 17.5004 10.4214 18.3357 9.73724 18.9109C9.39445 19.1991 9.10736 19.4235 8.90378 19.5773C8.80194 19.6543 8.72085 19.7138 8.66397 19.7548C8.63553 19.7754 8.61312 19.7913 8.59719 19.8026L8.57819 19.8159L8.57243 19.82L8.5705 19.8213C8.5702 19.8215 8.56921 19.8222 8 19ZM8 19L8.56921 19.8222C8.22676 20.0593 7.77267 20.0589 7.43023 19.8218L8 19ZM8 6C7.44772 6 7 6.44772 7 7C7 7.55228 7.44772 8 8 8C8.55228 8 9 7.55228 9 7C9 6.44772 8.55228 6 8 6ZM5 7C5 5.34315 6.34315 4 8 4C9.65685 4 11 5.34315 11 7C11 8.65685 9.65685 10 8 10C6.34315 10 5 8.65685 5 7Z" fill="#C6AF66"/>
</svg>
