<svg width="109" height="56" viewBox="0 0 109 56" fill="none" xmlns="http://www.w3.org/2000/svg">
<path d="M0.884277 16.1122H4.06876V25.9675H16.6056V16.1122H19.7901V39.1079H16.6056V28.7498H4.06876V39.1079H0.884277V16.1122Z" fill="white"/>
<path d="M35.4671 39.5102C31.8245 39.5102 28.9976 38.5157 26.9863 36.5268C24.9974 34.5155 24.003 31.5432 24.003 27.6101C24.003 23.6769 24.9974 20.7158 26.9863 18.7269C28.9976 16.7156 31.8245 15.71 35.4671 15.71C39.132 15.71 41.959 16.7156 43.9479 18.7269C45.9591 20.7158 46.9648 23.6769 46.9648 27.6101C46.9648 31.5209 45.9591 34.482 43.9479 36.4932C41.959 38.5045 39.132 39.5102 35.4671 39.5102ZM35.4671 36.7949C38.1264 36.7949 40.16 36.0798 41.5679 34.6496C42.9758 33.197 43.6797 30.8952 43.6797 27.7442V27.6101C43.6574 24.4144 42.9422 22.0902 41.5344 20.6376C40.1265 19.1627 38.1041 18.4252 35.4671 18.4252C32.8525 18.4252 30.8412 19.1627 29.4333 20.6376C28.0254 22.0902 27.3103 24.4144 27.288 27.6101V27.7442C27.288 30.8952 27.9919 33.197 29.3998 34.6496C30.8077 36.0798 32.8301 36.7949 35.4671 36.7949Z" fill="white"/>
<path d="M57.1658 18.8945H49.2549V16.1122H68.2613V18.8945H60.3503V39.1079H57.1658V18.8945Z" fill="white"/>
<path d="M71.6579 16.1122H89.3569V18.8945H74.8423V25.9675H87.882V28.7498H74.8423V36.3256H89.558V39.1079H71.6579V16.1122Z" fill="white"/>
<path d="M94.016 16.1122H97.2005V36.3256H109V39.1079H94.016V16.1122Z" fill="white"/>
<path d="M6.02328 53.3222C6.02328 54.1646 5.71775 54.8215 5.1067 55.2929C4.49564 55.7643 3.66635 56 2.61882 56C1.484 56 0.611058 55.8537 0 55.5613V54.4876C0.392823 54.6534 0.820563 54.7844 1.28322 54.8804C1.74588 54.9764 2.20417 55.0244 2.6581 55.0244C3.4001 55.0244 3.95878 54.8848 4.33414 54.6054C4.70951 54.3217 4.89719 53.9289 4.89719 53.4269C4.89719 53.0952 4.82954 52.8246 4.69423 52.6151C4.56329 52.4012 4.34069 52.2048 4.02643 52.0258C3.71654 51.8469 3.24297 51.6439 2.60572 51.4169C1.71533 51.0983 1.07808 50.7208 0.693987 50.2843C0.314258 49.8478 0.124394 49.2782 0.124394 48.5755C0.124394 47.8378 0.401552 47.2508 0.955869 46.8143C1.51019 46.3778 2.24345 46.1596 3.15568 46.1596C4.10718 46.1596 4.9823 46.3342 5.78104 46.6834L5.43405 47.6523C4.64404 47.3206 3.87585 47.1547 3.12949 47.1547C2.54025 47.1547 2.07978 47.2813 1.74806 47.5345C1.41634 47.7876 1.25049 48.139 1.25049 48.5886C1.25049 48.9203 1.31159 49.1931 1.4338 49.407C1.55601 49.6165 1.76116 49.8107 2.04923 49.9897C2.34166 50.1643 2.78686 50.3585 3.38482 50.5724C4.3887 50.9303 5.07833 51.3144 5.45369 51.7247C5.83342 52.135 6.02328 52.6675 6.02328 53.3222Z" fill="#C6AF66"/>
<path d="M14.9495 55.869H13.8365V47.2857H10.8052V46.2971H17.9808V47.2857H14.9495V55.869Z" fill="#C6AF66"/>
<path d="M29.4669 55.869L28.2754 52.8246H24.4388L23.2603 55.869H22.1343L25.9184 46.2578H26.8547L30.6192 55.869H29.4669ZM27.9284 51.8229L26.8154 48.857C26.6714 48.4816 26.523 48.0212 26.3702 47.4756C26.2742 47.8946 26.1367 48.3551 25.9577 48.857L24.8316 51.8229H27.9284Z" fill="#C6AF66"/>
<path d="M41.4245 46.2971H42.6226L39.1723 55.869H38.0724L34.6417 46.2971H35.8202L38.02 52.4907C38.2732 53.2021 38.4739 53.894 38.6223 54.5661C38.7795 53.859 38.9846 53.1541 39.2378 52.4514L41.4245 46.2971Z" fill="#C6AF66"/>
<path d="M49.0806 51.8883V55.869H47.9676V46.2971H50.593C51.7671 46.2971 52.6334 46.5219 53.1921 46.9714C53.7552 47.421 54.0367 48.0975 54.0367 49.001C54.0367 50.2668 53.3951 51.1223 52.1119 51.5675L54.711 55.869H53.3951L51.0774 51.8883H49.0806ZM49.0806 50.9325H50.606C51.3917 50.9325 51.9678 50.7775 52.3345 50.4676C52.7011 50.1533 52.8844 49.6841 52.8844 49.06C52.8844 48.4271 52.6967 47.971 52.3214 47.6916C51.9504 47.4123 51.3524 47.2726 50.5275 47.2726H49.0806V50.9325Z" fill="#C6AF66"/>
<path d="M68.5869 51.0699C68.5869 52.602 68.1984 53.8067 67.4215 54.684C66.6489 55.5613 65.573 56 64.1938 56C62.784 56 61.695 55.57 60.9268 54.7102C60.163 53.8459 59.7811 52.6282 59.7811 51.0569C59.7811 49.4986 60.1652 48.2918 60.9334 47.4363C61.7015 46.5764 62.7927 46.1465 64.2069 46.1465C65.5818 46.1465 66.6555 46.583 67.428 47.4559C68.2006 48.3289 68.5869 49.5335 68.5869 51.0699ZM60.9595 51.0699C60.9595 52.3663 61.2345 53.3505 61.7845 54.0227C62.3388 54.6905 63.1419 55.0244 64.1938 55.0244C65.2544 55.0244 66.0553 54.6905 66.5966 54.0227C67.1378 53.3549 67.4084 52.3707 67.4084 51.0699C67.4084 49.7823 67.1378 48.8068 66.5966 48.1434C66.0597 47.4756 65.2631 47.1417 64.2069 47.1417C63.1463 47.1417 62.3388 47.4777 61.7845 48.1499C61.2345 48.8177 60.9595 49.7911 60.9595 51.0699Z" fill="#C6AF66"/>
<path d="M80.8194 49.0862C80.8194 50.0551 80.4876 50.8015 79.8242 51.3253C79.1651 51.8447 78.2202 52.1044 76.9893 52.1044H75.8632V55.869H74.7502V46.2971H77.2316C79.6234 46.2971 80.8194 47.2268 80.8194 49.0862ZM75.8632 51.1485H76.8649C77.8514 51.1485 78.565 50.9892 79.0058 50.6706C79.4467 50.3519 79.6671 49.8413 79.6671 49.1385C79.6671 48.5056 79.4597 48.0342 79.0451 47.7243C78.6305 47.4145 77.9845 47.2595 77.1072 47.2595H75.8632V51.1485Z" fill="#C6AF66"/>
<path d="M95.16 51.0699C95.16 52.602 94.7715 53.8067 93.9946 54.684C93.2221 55.5613 92.1462 56 90.7669 56C89.3571 56 88.2681 55.57 87.5 54.7102C86.7361 53.8459 86.3542 52.6282 86.3542 51.0569C86.3542 49.4986 86.7383 48.2918 87.5065 47.4363C88.2747 46.5764 89.3659 46.1465 90.78 46.1465C92.1549 46.1465 93.2286 46.583 94.0012 47.4559C94.7737 48.3289 95.16 49.5335 95.16 51.0699ZM87.5327 51.0699C87.5327 52.3663 87.8077 53.3505 88.3576 54.0227C88.9119 54.6905 89.715 55.0244 90.7669 55.0244C91.8276 55.0244 92.6285 54.6905 93.1697 54.0227C93.7109 53.3549 93.9815 52.3707 93.9815 51.0699C93.9815 49.7823 93.7109 48.8068 93.1697 48.1434C92.6328 47.4756 91.8363 47.1417 90.78 47.1417C89.7194 47.1417 88.9119 47.4777 88.3576 48.1499C87.8077 48.8177 87.5327 49.7911 87.5327 51.0699Z" fill="#C6AF66"/>
<path d="M101.323 55.869V46.2971H102.436V54.8608H106.659V55.869H101.323Z" fill="#C6AF66"/>
<path d="M6.01064 0L7.48837 3.55295L11.324 3.86046L8.40166 6.36381L9.29449 10.1068L6.01064 8.10101L2.72679 10.1068L3.61962 6.36381L0.697266 3.86046L4.53291 3.55295L6.01064 0Z" fill="#C6AF66"/>
<path d="M32.8256 0L34.3033 3.55295L38.139 3.86046L35.2166 6.36381L36.1094 10.1068L32.8256 8.10101L29.5417 10.1068L30.4346 6.36381L27.5122 3.86046L31.3479 3.55295L32.8256 0Z" fill="#C6AF66"/>
<path d="M19.4184 0L20.8961 3.55295L24.7317 3.86046L21.8094 6.36381L22.7022 10.1068L19.4184 8.10101L16.1345 10.1068L17.0273 6.36381L14.105 3.86046L17.9406 3.55295L19.4184 0Z" fill="#C6AF66"/>
<path d="M46.2377 0L47.7154 3.55295L51.5511 3.86046L48.6287 6.36381L49.5215 10.1068L46.2377 8.10101L42.9538 10.1068L43.8467 6.36381L40.9243 3.86046L44.76 3.55295L46.2377 0Z" fill="#C6AF66"/>
</svg>
