<svg width="109" height="56" viewBox="0 0 109 56" fill="none" xmlns="http://www.w3.org/2000/svg">
<path d="M0.5 16.1124H3.68449V25.9677H16.2213V16.1124H19.4058V39.1081H16.2213V28.7499H3.68449V39.1081H0.5V16.1124Z" fill="#18191B"/>
<path d="M35.0828 39.5103C31.4402 39.5103 28.6133 38.5159 26.602 36.5269C24.6131 34.5156 23.6187 31.5434 23.6187 27.6102C23.6187 23.677 24.6131 20.716 26.602 18.727C28.6133 16.7158 31.4402 15.7101 35.0828 15.7101C38.7478 15.7101 41.5747 16.7158 43.5636 18.727C45.5748 20.716 46.5805 23.677 46.5805 27.6102C46.5805 31.521 45.5748 34.4821 43.5636 36.4934C41.5747 38.5047 38.7478 39.5103 35.0828 39.5103ZM35.0828 36.7951C37.7421 36.7951 39.7757 36.08 41.1836 34.6497C42.5915 33.1971 43.2954 30.8953 43.2954 27.7443V27.6102C43.2731 24.4145 42.558 22.0904 41.1501 20.6378C39.7422 19.1628 37.7198 18.4253 35.0828 18.4253C32.4682 18.4253 30.4569 19.1628 29.049 20.6378C27.6412 22.0904 26.9261 24.4145 26.9037 27.6102V27.7443C26.9037 30.8953 27.6076 33.1971 29.0155 34.6497C30.4234 36.08 32.4458 36.7951 35.0828 36.7951Z" fill="#18191B"/>
<path d="M56.7816 18.8946H48.8706V16.1124H67.877V18.8946H59.966V39.1081H56.7816V18.8946Z" fill="#18191B"/>
<path d="M71.2736 16.1124H88.9726V18.8946H74.4581V25.9677H87.4977V28.7499H74.4581V36.3258H89.1737V39.1081H71.2736V16.1124Z" fill="#18191B"/>
<path d="M93.6317 16.1124H96.8162V36.3258H108.616V39.1081H93.6317V16.1124Z" fill="#18191B"/>
<path d="M6.02328 53.3222C6.02328 54.1646 5.71775 54.8215 5.1067 55.2929C4.49564 55.7643 3.66635 56 2.61882 56C1.484 56 0.611058 55.8538 0 55.5614V54.4876C0.392823 54.6535 0.820563 54.7844 1.28322 54.8805C1.74588 54.9765 2.20417 55.0245 2.6581 55.0245C3.4001 55.0245 3.95878 54.8848 4.33414 54.6055C4.70951 54.3218 4.89719 53.9289 4.89719 53.427C4.89719 53.0953 4.82954 52.8246 4.69423 52.6151C4.56329 52.4013 4.34069 52.2049 4.02643 52.0259C3.71654 51.8469 3.24297 51.644 2.60572 51.417C1.71533 51.0984 1.07808 50.7208 0.693987 50.2844C0.314258 49.8479 0.124394 49.2783 0.124394 48.5755C0.124394 47.8379 0.401552 47.2508 0.955869 46.8144C1.51019 46.3779 2.24345 46.1596 3.15568 46.1596C4.10718 46.1596 4.9823 46.3342 5.78104 46.6834L5.43405 47.6524C4.64404 47.3207 3.87585 47.1548 3.12949 47.1548C2.54025 47.1548 2.07978 47.2814 1.74806 47.5345C1.41634 47.7877 1.25049 48.1391 1.25049 48.5886C1.25049 48.9204 1.31159 49.1932 1.4338 49.407C1.55601 49.6165 1.76116 49.8108 2.04923 49.9897C2.34166 50.1643 2.78686 50.3586 3.38482 50.5724C4.3887 50.9303 5.07833 51.3144 5.45369 51.7247C5.83342 52.135 6.02328 52.6675 6.02328 53.3222Z" fill="#C6AF66"/>
<path d="M14.9495 55.8691H13.8365V47.2858H10.8052V46.2971H17.9808V47.2858H14.9495V55.8691Z" fill="#C6AF66"/>
<path d="M29.4669 55.8691L28.2754 52.8246H24.4388L23.2603 55.8691H22.1343L25.9184 46.2578H26.8547L30.6192 55.8691H29.4669ZM27.9284 51.8229L26.8154 48.8571C26.6714 48.4817 26.523 48.0212 26.3702 47.4756C26.2742 47.8946 26.1367 48.3551 25.9577 48.8571L24.8316 51.8229H27.9284Z" fill="#C6AF66"/>
<path d="M41.4245 46.2971H42.6226L39.1723 55.8691H38.0724L34.6417 46.2971H35.8202L38.02 52.4907C38.2732 53.2022 38.4739 53.894 38.6223 54.5662C38.7795 53.8591 38.9846 53.1542 39.2378 52.4515L41.4245 46.2971Z" fill="#C6AF66"/>
<path d="M49.0806 51.8884V55.8691H47.9676V46.2971H50.593C51.7671 46.2971 52.6334 46.5219 53.1921 46.9715C53.7552 47.4211 54.0367 48.0976 54.0367 49.0011C54.0367 50.2669 53.3951 51.1224 52.1119 51.5676L54.711 55.8691H53.3951L51.0774 51.8884H49.0806ZM49.0806 50.9325H50.606C51.3917 50.9325 51.9678 50.7776 52.3345 50.4677C52.7011 50.1534 52.8844 49.6842 52.8844 49.06C52.8844 48.4271 52.6967 47.971 52.3214 47.6917C51.9504 47.4123 51.3524 47.2727 50.5275 47.2727H49.0806V50.9325Z" fill="#C6AF66"/>
<path d="M68.5869 51.07C68.5869 52.602 68.1984 53.8067 67.4215 54.684C66.6489 55.5614 65.573 56 64.1938 56C62.784 56 61.695 55.5701 60.9268 54.7102C60.163 53.846 59.7811 52.6282 59.7811 51.0569C59.7811 49.4987 60.1652 48.2918 60.9334 47.4363C61.7015 46.5765 62.7927 46.1465 64.2069 46.1465C65.5818 46.1465 66.6555 46.583 67.428 47.456C68.2006 48.3289 68.5869 49.5336 68.5869 51.07ZM60.9595 51.07C60.9595 52.3663 61.2345 53.3506 61.7845 54.0228C62.3388 54.6906 63.1419 55.0245 64.1938 55.0245C65.2544 55.0245 66.0553 54.6906 66.5965 54.0228C67.1378 53.355 67.4084 52.3707 67.4084 51.07C67.4084 49.7824 67.1378 48.8069 66.5965 48.1434C66.0597 47.4756 65.2631 47.1417 64.2069 47.1417C63.1463 47.1417 62.3388 47.4778 61.7845 48.15C61.2345 48.8178 60.9595 49.7911 60.9595 51.07Z" fill="#C6AF66"/>
<path d="M80.8194 49.0862C80.8194 50.0552 80.4876 50.8016 79.8242 51.3253C79.1651 51.8448 78.2202 52.1045 76.9893 52.1045H75.8632V55.8691H74.7502V46.2971H77.2316C79.6234 46.2971 80.8194 47.2268 80.8194 49.0862ZM75.8632 51.1486H76.8649C77.8514 51.1486 78.565 50.9893 79.0058 50.6706C79.4467 50.352 79.6671 49.8413 79.6671 49.1386C79.6671 48.5057 79.4597 48.0343 79.0451 47.7244C78.6305 47.4145 77.9845 47.2596 77.1072 47.2596H75.8632V51.1486Z" fill="#C6AF66"/>
<path d="M95.16 51.07C95.16 52.602 94.7715 53.8067 93.9946 54.684C93.2221 55.5614 92.1462 56 90.7669 56C89.3571 56 88.2681 55.5701 87.5 54.7102C86.7361 53.846 86.3542 52.6282 86.3542 51.0569C86.3542 49.4987 86.7383 48.2918 87.5065 47.4363C88.2747 46.5765 89.3659 46.1465 90.78 46.1465C92.1549 46.1465 93.2286 46.583 94.0012 47.456C94.7737 48.3289 95.16 49.5336 95.16 51.07ZM87.5327 51.07C87.5327 52.3663 87.8077 53.3506 88.3576 54.0228C88.9119 54.6906 89.715 55.0245 90.7669 55.0245C91.8276 55.0245 92.6285 54.6906 93.1697 54.0228C93.7109 53.355 93.9815 52.3707 93.9815 51.07C93.9815 49.7824 93.7109 48.8069 93.1697 48.1434C92.6328 47.4756 91.8363 47.1417 90.78 47.1417C89.7194 47.1417 88.9119 47.4778 88.3576 48.15C87.8077 48.8178 87.5327 49.7911 87.5327 51.07Z" fill="#C6AF66"/>
<path d="M101.323 55.8691V46.2971H102.436V54.8608H106.659V55.8691H101.323Z" fill="#C6AF66"/>
<path d="M6.01064 0L7.48837 3.55295L11.324 3.86046L8.40166 6.36381L9.29449 10.1068L6.01064 8.10101L2.72679 10.1068L3.61962 6.36381L0.697266 3.86046L4.53291 3.55295L6.01064 0Z" fill="#C6AF66"/>
<path d="M32.8256 0L34.3033 3.55295L38.139 3.86046L35.2166 6.36381L36.1094 10.1068L32.8256 8.10101L29.5417 10.1068L30.4346 6.36381L27.5122 3.86046L31.3479 3.55295L32.8256 0Z" fill="#C6AF66"/>
<path d="M19.4184 0L20.8961 3.55295L24.7317 3.86046L21.8094 6.36381L22.7022 10.1068L19.4184 8.10101L16.1345 10.1068L17.0273 6.36381L14.105 3.86046L17.9406 3.55295L19.4184 0Z" fill="#C6AF66"/>
<path d="M46.2377 0L47.7154 3.55295L51.5511 3.86046L48.6287 6.36381L49.5215 10.1068L46.2377 8.10101L42.9538 10.1068L43.8467 6.36381L40.9243 3.86046L44.76 3.55295L46.2377 0Z" fill="#C6AF66"/>
</svg>
