<svg width="18" height="15" viewBox="0 0 18 15" fill="none" xmlns="http://www.w3.org/2000/svg">
<path d="M4.42552 8.65462L0.360425 7.33013C0.360425 7.33013 -0.125399 7.13302 0.031036 6.68607C0.0632392 6.5939 0.128201 6.51547 0.32253 6.38069C1.22325 5.75287 16.9941 0.0844094 16.9941 0.0844094C16.9941 0.0844094 17.4394 -0.0656409 17.702 0.0341613C17.767 0.0542726 17.8254 0.0912811 17.8714 0.1414C17.9174 0.191519 17.9492 0.25295 17.9636 0.31941C17.992 0.436794 18.0039 0.557563 17.9989 0.678225C17.9976 0.782608 17.985 0.879356 17.9754 1.03107C17.8794 2.58085 15.005 14.1474 15.005 14.1474C15.005 14.1474 14.833 14.8242 14.2168 14.8474C14.0654 14.8522 13.9145 14.8266 13.7732 14.7719C13.6319 14.7173 13.5031 14.6347 13.3944 14.5292C12.1852 13.4891 8.00605 10.6805 7.08256 10.0628C7.06173 10.0486 7.04419 10.0301 7.03112 10.0086C7.01804 9.98703 7.00974 9.96293 7.00678 9.9379C6.99387 9.8728 7.06466 9.79215 7.06466 9.79215C7.06466 9.79215 14.3417 3.32375 14.5354 2.6447C14.5504 2.5921 14.4937 2.56614 14.4177 2.58918C13.9343 2.76699 5.55569 8.05817 4.63096 8.64213C4.56439 8.66227 4.49404 8.66655 4.42552 8.65462V8.65462Z" />
</svg>
